<svg width="47" height="39" viewBox="0 0 47 39" fill="none" xmlns="http://www.w3.org/2000/svg">
<path d="M14.95 22.3333H7.16665C5.33331 22.3333 3.83331 23.8333 3.83331 25.6666V35.6666H14.95V22.3333Z" stroke="#292D32" stroke-width="1.5" stroke-miterlimit="10" stroke-linecap="round" stroke-linejoin="round"/>
<path d="M22.7167 15.6667H18.2667C16.4333 15.6667 14.9333 17.1667 14.9333 19.0001V35.6667H26.05V19.0001C26.05 17.1667 24.5667 15.6667 22.7167 15.6667Z" stroke="#292D32" stroke-width="1.5" stroke-miterlimit="10" stroke-linecap="round" stroke-linejoin="round"/>
<path d="M33.8333 27.3333H26.05V35.6666H37.1667V30.6666C37.1667 28.8333 35.6667 27.3333 33.8333 27.3333Z" stroke="#292D32" stroke-width="1.5" stroke-miterlimit="10" stroke-linecap="round" stroke-linejoin="round"/>
<path d="M21.3667 2.44995L22.25 4.21661C22.3667 4.46661 22.6834 4.69994 22.95 4.73327L24.55 4.99995C25.5667 5.16661 25.8167 5.91658 25.0833 6.63325L23.8333 7.88325C23.6167 8.09991 23.5 8.49993 23.5667 8.78326L23.9167 10.3166C24.2 11.5333 23.55 12 22.4833 11.3666L20.9834 10.4833C20.7167 10.3166 20.2667 10.3166 20 10.4833L18.5 11.3666C17.4333 12 16.7833 11.5333 17.0667 10.3166L17.4167 8.78326C17.4834 8.49993 17.3667 8.08325 17.15 7.88325L15.9167 6.64993C15.1833 5.9166 15.4167 5.18325 16.45 5.01658L18.05 4.74996C18.3167 4.69996 18.6334 4.46663 18.75 4.23329L19.6333 2.46658C20.1167 1.49991 20.8834 1.49995 21.3667 2.44995Z" stroke="#292D32" stroke-width="1.5" stroke-linecap="round" stroke-linejoin="round"/>
</svg>
