<svg width="41" height="40" viewBox="0 0 41 40" fill="none" xmlns="http://www.w3.org/2000/svg">
<path d="M20.5 30.8334C26.4831 30.8334 31.3334 25.9832 31.3334 20.0001C31.3334 14.017 26.4831 9.16675 20.5 9.16675C14.5169 9.16675 9.66669 14.017 9.66669 20.0001C9.66669 25.9832 14.5169 30.8334 20.5 30.8334Z" stroke="#292D32" stroke-width="1.5" stroke-linecap="round" stroke-linejoin="round"/>
<path d="M32.4 31.8999L32.1833 31.6833M32.1833 8.31659L32.4 8.09992L32.1833 8.31659ZM8.59998 31.8999L8.81665 31.6833L8.59998 31.8999ZM20.5 3.46659V3.33325V3.46659ZM20.5 36.6666V36.5333V36.6666ZM3.96665 19.9999H3.83331H3.96665ZM37.1666 19.9999H37.0333H37.1666ZM8.81665 8.31659L8.59998 8.09992L8.81665 8.31659Z" stroke="#292D32" stroke-width="2" stroke-linecap="round" stroke-linejoin="round"/>
</svg>
