<svg width="24" height="21" viewBox="0 0 24 21" fill="none" xmlns="http://www.w3.org/2000/svg">
<path d="M11 1.71606H9C4 1.71606 2 3.43211 2 7.72221V12.8703C2 17.1604 4 18.8765 9 18.8765H15C20 18.8765 22 17.1604 22 12.8703V11.1543" stroke="white" stroke-width="1.5" stroke-linecap="round" stroke-linejoin="round"/>
<path d="M16.04 2.59123L8.16 9.35244C7.86 9.60984 7.56 10.1161 7.5 10.485L7.07 13.0677C6.91 14.0029 7.68 14.655 8.77 14.5263L11.78 14.1574C12.2 14.1059 12.79 13.8485 13.1 13.5911L20.98 6.82985C22.34 5.66295 22.98 4.30727 20.98 2.59123C18.98 0.875188 17.4 1.42432 16.04 2.59123Z" stroke="white" stroke-width="1.5" stroke-miterlimit="10" stroke-linecap="round" stroke-linejoin="round"/>
<path d="M14.91 3.56079C15.58 5.61146 17.45 7.21596 19.85 7.79942" stroke="white" stroke-width="1.5" stroke-miterlimit="10" stroke-linecap="round" stroke-linejoin="round"/>
</svg>
