<svg width="40" height="40" viewBox="0 0 40 40" fill="none" xmlns="http://www.w3.org/2000/svg">
<path d="M29.9667 17.9833V24.65C29.9667 25.0833 29.95 25.5 29.9 25.9C29.5167 30.4 26.8667 32.6333 21.9833 32.6333H21.3167C20.9 32.6333 20.5 32.8333 20.25 33.1667L18.25 35.8333C17.3667 37.0167 15.9333 37.0167 15.05 35.8333L13.05 33.1667C12.8333 32.8833 12.35 32.6333 11.9833 32.6333H11.3167C5.99999 32.6333 3.33331 31.3167 3.33331 24.65V17.9833C3.33331 13.1 5.58333 10.45 10.0667 10.0667C10.4667 10.0167 10.8833 10 11.3167 10H21.9833C27.3 10 29.9667 12.6667 29.9667 17.9833Z" stroke="#292D32" stroke-width="1.5" stroke-miterlimit="10" stroke-linecap="round" stroke-linejoin="round"/>
<path d="M36.6333 11.3166V17.9833C36.6333 22.8833 34.3833 25.5166 29.9 25.8999C29.95 25.4999 29.9667 25.0833 29.9667 24.6499V17.9833C29.9667 12.6666 27.3 9.99992 21.9833 9.99992H11.3167C10.8833 9.99992 10.4667 10.0166 10.0667 10.0666C10.45 5.58327 13.1 3.33325 17.9833 3.33325H28.65C33.9666 3.33325 36.6333 5.99993 36.6333 11.3166Z" stroke="#292D32" stroke-width="1.5" stroke-miterlimit="10" stroke-linecap="round" stroke-linejoin="round"/>
<path d="M22.4925 22.0833H22.5075" stroke="#292D32" stroke-width="2" stroke-linecap="round" stroke-linejoin="round"/>
<path d="M16.6591 22.0833H16.6741" stroke="#292D32" stroke-width="2" stroke-linecap="round" stroke-linejoin="round"/>
<path d="M10.8258 22.0833H10.8408" stroke="#292D32" stroke-width="2" stroke-linecap="round" stroke-linejoin="round"/>
</svg>
